<?xml version="1.0" encoding="UTF-8" standalone="no"?>
<!-- Created with Inkscape (http://www.inkscape.org/) by Toomai Glittershine for SmashWiki -->
<svg id="svg2" xmlns:rdf="http://www.w3.org/1999/02/22-rdf-syntax-ns#" xmlns="http://www.w3.org/2000/svg" version="1.1" xmlns:cc="http://creativecommons.org/ns#" xmlns:dc="http://purl.org/dc/elements/1.1/"
		height="256" width="256"
		viewBox="0 0 256 256">
	<metadata id="metadata7">
		<rdf:RDF>
			<cc:Work rdf:about="">
				<dc:format>image/svg+xml</dc:format>
				<dc:type rdf:resource="http://purl.org/dc/dcmitype/StillImage"/>
				<dc:title/>
			</cc:Work>
		</rdf:RDF>
	</metadata>
	<path id="mainsymbolpath" style="opacity:0.5;fill:#000000;fill-opacity:1;stroke:none"
		d="m 154.54015,127.99605 c 0,14.65791 -11.88258,26.5405 -26.54049,26.5405 -14.65792,0 -26.5405,-11.88259 -26.5405,-26.5405 0,-14.65791 11.88258,-26.5405 26.5405,-26.5405 14.65791,0 26.54049,11.88259 26.54049,26.5405 z M 127.98849,38 C 82.019956,38 44.102136,72.45551 38.65601,116.95141 l 48.360613,0 c 4.858969,-18.07571 21.360667,-31.3734 40.971867,-31.3734 19.6112,0 36.13066,13.29769 40.99488,31.3734 l 48.36062,0 C 211.8949,72.45551 173.95702,38 127.98849,38 z M 38.65601,139.04859 C 44.102136,183.54449 82.019956,218 127.98849,218 c 45.96853,0 83.90641,-34.45551 89.3555,-78.95141 l -48.36062,0 c -4.86422,18.07571 -21.38368,31.37341 -40.99488,31.37341 -19.6112,0 -36.112898,-13.2977 -40.971867,-31.37341 l -48.360613,0 z"
	/>
</svg>