<?xml version="1.0" encoding="UTF-8" standalone="no"?>
<!-- Created with Inkscape (http://www.inkscape.org/) by Toomai Glittershine for SmashWiki -->
<svg id="svg2" xmlns:rdf="http://www.w3.org/1999/02/22-rdf-syntax-ns#" xmlns="http://www.w3.org/2000/svg" version="1.1" xmlns:cc="http://creativecommons.org/ns#" xmlns:dc="http://purl.org/dc/elements/1.1/"
		height="256" width="256"
		viewBox="0 0 256 256">
	<metadata id="metadata7">
		<rdf:RDF>
			<cc:Work rdf:about="">
				<dc:format>image/svg+xml</dc:format>
				<dc:type rdf:resource="http://purl.org/dc/dcmitype/StillImage"/>
				<dc:title/>
			</cc:Work>
		</rdf:RDF>
	</metadata>
	<path id="mainsymbolpath" style="opacity:0.5;fill:#000000;fill-opacity:1;stroke:none"
		d="M 70.005417,194.55237 121.28272,154.12555 78.055779,101.09816 189.18578,52.270964 l -46.7271,54.777466 37.45168,45.32704 z M 214.62604,33.3615 150.14967,61.693034 c -6.96144,-2.324213 -14.41316,-3.58571 -22.15615,-3.58571 -38.608166,0 -69.899204,31.291038 -69.899204,69.899206 0,19.69312 8.145965,37.47199 21.248651,50.1778 l -50.377009,39.70842 69.301588,-26.60508 c 9.023694,4.24763 19.091874,6.61807 29.725974,6.61807 38.60817,0 69.92134,-31.29104 69.92134,-69.89921 0,-19.68398 -8.15663,-37.451032 -21.24865,-50.155668 L 214.62604,33.3615 z"
	/>
</svg>