<?xml version="1.0" encoding="UTF-8" standalone="no"?>
<!-- Created with Inkscape (http://www.inkscape.org/) by Toomai Glittershine for SmashWiki -->
<svg id="svg2" xmlns:rdf="http://www.w3.org/1999/02/22-rdf-syntax-ns#" xmlns="http://www.w3.org/2000/svg" version="1.1" xmlns:cc="http://creativecommons.org/ns#" xmlns:dc="http://purl.org/dc/elements/1.1/"
		height="256" width="256"
		viewBox="0 0 256 256">
	<metadata id="metadata7">
		<rdf:RDF>
			<cc:Work rdf:about="">
				<dc:format>image/svg+xml</dc:format>
				<dc:type rdf:resource="http://purl.org/dc/dcmitype/StillImage"/>
				<dc:title/>
			</cc:Work>
		</rdf:RDF>
	</metadata>
	<path id="mainsymbolpath" style="opacity:0.5;fill:#000000;fill-opacity:1;stroke:none"
		d="m 128,38.01211 c -49.702745,0 -90,40.273023 -90,89.97578 0,49.70275 40.297255,90 90,90 49.70275,0 90,-40.29725 90,-90 0,-49.702757 -40.29725,-89.97578 -90,-89.97578 z m 0,5.959623 c 37.95681,0 70.01208,25.182381 80.43069,59.741597 -9.66082,0.009 -11.22829,-0.0225 -13.10633,-2.10767 -3.32121,-3.687457 -1.10762,-13.358156 -2.39838,-14.705256 -0.60449,-0.630881 -1.74073,-0.5594 -2.5922,-0.36339 -2.98512,0.68717 -1.83879,3.25267 -5.49933,3.87617 -2.2147,0.37724 -3.5892,2.9451 -6.61372,3.02827 -3.56866,0.0981 -9.28553,-0.19612 -12.69449,-1.09018 -5.41208,-1.41941 -7.00669,-5.39546 -8.62449,-5.45087 -1.74556,-0.0598 -3.32941,1.24294 -4.69987,2.3257 -1.65946,1.31111 -4.13838,2.782 -4.02153,4.89368 0.0888,1.6048 1.07627,3.3682 3.44011,3.36743 2.97591,-10e-4 3.44504,-2.93926 5.18439,-2.22881 1.0242,0.41835 0.8505,4.756236 0.1938,5.572016 -2.17269,2.69903 -6.54666,3.34077 -9.98115,2.88291 -3.9725,-0.52958 -7.8465,-1.70116 -10.27187,-6.226116 -0.6878,1.30319 -1.22505,2.24095 -1.04173,3.391656 0.3268,2.05131 3.37118,6.34684 6.51683,7.82504 4.12972,1.94062 17.18107,2.38613 21.56124,2.34993 -4.70596,1.04979 -9.397,3.14125 -9.27861,4.19112 0.24634,2.18435 9.83678,0.21725 9.61777,6.15343 -0.0962,2.60792 -5.4608,5.01896 -8.84253,6.32301 -3.15647,1.21721 -7.18333,2.91369 -10.07806,1.16286 -3.11302,-1.88286 -1.02189,-8.0142 -3.94886,-10.17497 -2.14531,-1.58374 -5.17066,-2.79924 -6.71063,-2.49529 -1.62489,0.32071 -1.61659,3.64355 -3.27053,3.73082 -3.00597,0.15861 -3.18831,1.29413 -4.84522,1.16285 -3.51252,-0.27829 -6.06653,-4.62146 -9.56931,-4.23956 -1.31746,0.14363 -2.5012,1.24245 -3.14939,2.39838 -0.47205,0.8418 0.23106,2.071 -0.29072,2.88291 -0.48085,0.74822 -1.60895,1.0673 -2.49529,0.99327 -0.74743,-0.0624 -1.6594,-0.59037 -1.7685,-1.33244 -0.32935,-2.23989 3.47654,-3.13875 3.4401,-5.40242 -0.0152,-0.94135 -0.98992,-1.37235 -1.38088,-2.2288 -0.67061,-1.46907 -0.9323,-3.20801 -1.33244,-4.77255 -0.61566,-2.40723 -1.03009,-6.66872 -1.81696,-7.1467 -0.90243,-0.54818 -1.72367,1.04641 -2.71332,0.67833 -0.9993,-0.37166 -2.60041,-3.487596 -2.49529,-5.450876 0.14091,-2.63165 4.24109,-3.74091 4.96635,-6.27457 0.7481,-2.61349 0.84828,-4.9008 2.1319,-7.07402 0.95551,-1.61774 4.06727,-3.623051 4.02153,-3.94886 -0.0725,-0.51604 -1.32202,-0.22087 -1.72005,-0.5572 -0.49511,-0.41834 0.16336,-1.56991 -0.48452,-1.55047 -0.58251,0.0175 -4.39032,2.07223 -6.22611,3.63392 -1.99174,1.69435 -3.22258,5.85132 -5.790045,6.34724 -6.25449,1.20809 -6.860349,3.0055 -8.527591,1.62315 -4.091237,-3.39214 3.041738,-9.23554 2.979812,-9.88425 -0.03102,-0.32498 -0.851999,-0.0481 -1.114401,-0.24226 -0.759818,-0.56233 -0.246526,-2.35252 -1.187079,-2.44684 -1.11377,-0.111698 -5.589962,5.34983 -10.368776,6.83176 -4.190662,1.29954 -12.396762,2.69972 -13.6393,1.81696 -0.965538,-0.68597 0.25914,-2.91295 0,-3.56124 -0.265008,-0.66297 -3.779315,-0.34781 -3.92463,-1.84118 -0.388355,-3.991052 4.356424,-10.837211 10.538358,-17.152089 0.01599,-0.01633 0.03245,-0.03213 0.04845,-0.04845 C 89.080058,51.173558 107.69915,43.971735 128,43.971735 z m 30.25841,14.414536 c -0.21551,-7.01e-4 -0.3941,0.06838 -0.50875,0.218035 -0.70507,0.920391 3.19978,3.338549 5.32975,3.755046 3.52928,0.690123 5.26062,0.554812 7.31628,2.059219 2.10001,1.536858 2.14911,6.948486 4.38493,6.565276 1.78843,-0.306529 -1.03261,-6.831237 -3.29475,-9.157469 -2.6541,-2.729291 -5.7047,-2.055539 -8.52759,-2.18035 -1.95541,-0.08646 -3.76599,-1.25672 -4.69987,-1.259757 z m 2.54374,15.94078 c -1.52679,0.154282 -2.97023,1.906835 -2.90713,3.440104 0.0493,1.197401 0.50406,2.6746 1.40511,3.75505 0.6186,0.74176 2.25903,0.20768 2.93136,0.77524 1.784,1.50597 3.37194,2.38474 5.40243,3.53701 2.00131,1.13571 6.06646,1.32242 8.55181,-0.0242 0.66627,-0.361009 1.21984,-1.682599 1.76851,-2.42261 0.48423,-0.6531 0.99494,-0.74392 0.96904,-0.92059 -0.0441,-0.30135 -0.58564,-0.26309 -0.72678,-0.53298 -0.44402,-0.84906 0.84257,-2.59951 -0.0726,-2.8829 -1.08095,-0.33468 -0.9365,2.34002 -1.98654,2.76177 -1.43643,0.57695 -3.03352,-0.91588 -4.57873,-0.82368 -2.0188,0.12045 -4.40837,2.96022 -6.15344,1.93808 -1.11257,-0.65166 0.009,-2.93912 -0.46029,-3.94885 -0.22008,-0.47358 -1.38957,0.11678 -1.74428,-0.26649 -0.50464,-0.54527 0.11659,-4.639063 -2.39839,-4.384924 z M 64.018843,89.395694 c 0.935155,-0.0288 1.825676,0.578 2.325706,1.91386 1.070051,2.858689 1.369662,5.248639 3.173621,7.098249 1.401251,1.43671 2.03485,2.421227 5.426648,2.567977 2.862429,0.12384 6.02233,-3.698357 8.212652,-2.519527 1.538778,0.82817 -0.223391,6.221717 2.010767,7.582777 2.119829,1.29141 2.806714,-0.19245 3.294751,-1.25975 1.251266,-2.73643 3.317813,-6.593947 6.323015,-6.444157 2.858535,0.14248 5.865457,4.620977 5.378197,6.686417 -1.107298,4.69373 -9.698569,12.9649 -14.414536,13.54239 -4.447421,0.54461 -1.878481,-11.07419 -3.343204,-13.03364 -1.202577,-1.60877 -4.255506,-2.05643 -5.959623,-0.99327 -1.770036,1.10427 -0.90519,3.9022 -1.889636,5.74158 -0.867959,1.62173 -2.488479,4.18388 -3.464334,4.04576 -2.206093,-0.31225 -0.404945,-4.24684 -2.034994,-5.76581 -0.864378,-0.80548 -2.872725,-2.09347 -3.149394,-0.94482 -0.961611,3.99234 -0.127583,11.8908 1.502019,16.76447 1.477942,4.4201 13.305459,8.36359 15.746972,10.10229 0.876928,0.6245 1.906195,1.21641 1.380888,2.15612 -0.570466,1.02049 -3.372832,0.48418 -5.014805,-0.26649 -2.7458,-1.2553 -13.271295,-7.42839 -14.535666,-8.67294 -6.557231,-6.45444 -10.785966,-16.99629 -12.597577,-23.62046 -0.384707,-1.40668 -0.772244,-3.88702 0.629878,-4.288027 0.873625,-0.24986 3.894207,2.395017 5.426649,1.332437 1.873197,-1.298847 1.223446,-6.463117 2.979812,-9.738897 0.688482,-1.28409 1.657038,-1.9578 2.592194,-1.98654 z m 115.025567,6.710629 c 0.40799,-0.007 0.811,-0.009 1.21131,0 1.9215,0.0453 3.67945,0.2749 4.57873,0.79946 1.32773,0.77447 4.13196,6.867507 3.82773,8.430697 -0.83772,4.30425 -6.22138,3.41908 -10.00538,3.41588 -5.70941,-0.005 -10.5441,1.49247 -10.8533,1.04172 -0.43245,-0.63041 1.0073,-2.96854 1.55047,-4.43338 1.03121,-2.78101 0.79855,-6.575366 3.22207,-8.285336 0.72109,-0.50877 3.61247,-0.92304 6.46837,-0.969041 z m 11.8708,19.841187 c 2.11094,-0.0465 3.75005,1.39897 3.70659,4.53029 -0.0332,2.39299 -0.98181,4.85486 -3.58546,5.88694 -2.18807,0.86734 -6.29965,0.37689 -9.2786,1.52625 -2.2172,0.85545 -5.62553,3.95194 -7.99462,4.04576 -2.36909,0.0938 -3.13861,-2.00393 -2.81023,-4.74832 0.36105,-3.0174 0.64958,-5.59505 3.46434,-4.821 2.81475,0.77407 4.48594,5.50992 6.78331,4.62719 2.46557,-0.94736 3.83907,-8.90055 7.48587,-10.51413 0.76143,-0.33691 1.52515,-0.51746 2.2288,-0.53298 z m 7.92194,1.76851 c 0.378,0.009 0.8026,0.20061 1.33243,0.58143 1.69548,1.21862 3.13857,4.98024 3.12517,8.21265 -0.0131,3.15261 -0.12688,5.47318 -2.32571,7.19515 -2.19881,1.72197 -5.29958,1.70872 -5.93539,1.84119 -0.6358,0.13245 -0.58997,0.83048 -1.62315,0.75101 -1.03318,-0.0795 -1.33314,-1.00861 -1.04172,-1.96232 0.29141,-0.9537 1.51322,-1.99057 3.70659,-3.8035 1.86425,-1.5409 2.39839,-3.3751 2.39839,-4.67564 0,-2.11934 -1.73435,-4.78648 -1.28399,-6.32301 0.30962,-1.05636 0.81577,-1.83588 1.64738,-1.81696 z m -35.15209,14.55989 c 0.10431,-0.0117 0.2111,-0.004 0.33917,0 1.79285,0.0473 5.36292,1.52135 5.52355,1.79273 0.77492,1.30922 -0.41336,4.93556 -2.25303,5.35397 -1.26407,0.2875 -1.40538,-2.45783 -2.6891,-2.27725 -1.65927,0.23342 -2.71243,2.53992 -2.73755,4.21534 -0.048,3.20463 2.48396,3.32803 3.2463,4.19112 0.65244,0.73864 0.73655,4.37497 0.67833,8.52759 1.41655,-5.16166 1.56851,-9.96709 4.21535,-14.0996 0.58652,-0.91573 1.35943,-2.16713 2.44683,-2.15612 1.59467,0.0162 2.3929,1.91508 3.1494,3.31898 1.85141,3.43583 1.39227,10.95094 2.2288,11.48317 1.04695,0.66612 2.5758,-0.45356 3.73082,0 1.1614,0.45608 1.12896,2.40531 2.37416,2.32571 0.76357,-0.0488 1.12632,-1.27773 1.84118,-1.55047 0.83275,-0.31772 1.59529,0.11908 2.32571,0.62988 1.06572,0.74528 1.73709,1.91301 1.93809,3.19785 0.19006,1.21488 -0.18268,3.14481 -0.67833,3.68236 -0.73583,0.79805 -2.64201,0.30851 -2.81023,1.38089 -0.13672,0.87163 1.18425,1.07371 2.05922,1.18708 1.26369,0.16374 3.13025,-1.84673 4.02153,-1.06595 1.64863,1.44425 -1.12158,4.50314 -2.73755,5.98385 -1.07375,0.98385 -2.54172,1.18925 -3.97308,0.92059 -1.27411,-0.23913 -1.79015,-2.16979 -3.07672,-2.01076 -1.21757,0.1505 -4.98112,13.54715 -8.43068,12.35531 -2.42268,-0.83704 0.22892,-8.75545 2.25303,-12.45222 0.90239,-1.64809 1.83112,0.23283 2.95558,-2.81023 0.43381,-1.17399 1.17985,-2.57027 0.60565,-3.68236 -0.40868,-0.79155 -2.72614,-2.33939 -3.85195,-2.035 -1.03403,0.27958 -1.55132,1.55457 -1.96231,2.54374 -1.23864,2.98113 -0.30733,8.53605 -1.28399,9.61777 -0.83973,0.93006 -7.61767,0.56642 -8.09152,0.19381 -0.87878,-0.69102 -0.78915,-2.72371 -1.40511,-4.11844 -0.97689,-2.21197 -1.68379,-3.04356 -3.22207,-3.22207 -1.26339,-0.14662 -2.47346,0.8511 -2.95559,1.55047 -0.37583,0.54515 -1.46711,2.8058 -1.23553,4.19111 0.20783,1.24325 0.73138,2.55175 1.84118,3.1494 2.07326,1.11649 5.39132,-1.25981 7.0498,0.41184 0.96705,0.97474 1.2566,3.24909 0.19381,4.11844 -1.48081,1.21128 -8.30458,-1.15571 -11.87079,0.70256 -4.54133,2.36637 -7.48313,11.55926 -9.59354,12.01615 -1.4108,0.30543 -1.91681,-1.6043 -3.05249,-2.49529 -0.8739,-0.68562 -2.26812,-1.05216 -3.02827,-0.24226 -0.9651,1.02826 -0.18287,2.799 0.31494,4.11844 1.71065,4.53406 4.89058,10.88934 7.89771,13.22745 9.27212,-3.07533 18.38234,-7.14388 26.89099,-12.01615 7.97814,-4.56849 21.99729,-19.47485 32.43876,-31.49394 -12.81121,30.02593 -42.59726,51.06864 -77.30552,51.06864 -4.77152,0 -9.44835,-0.39873 -14.00269,-1.16285 9.07271,-0.53574 18.5218,-2.30197 27.86003,-5.08749 0.17626,-0.71133 -0.10393,-1.5924 -0.3634,-2.20457 -1.17989,-2.78381 -5.71385,-2.25863 -8.01884,-4.21534 -0.99325,-0.84319 -0.13834,-1.6766 -0.50875,-2.37416 -0.3256,-0.61316 -0.54128,-1.04189 -1.23553,-1.04173 -0.54331,1.4e-4 -0.51731,1.00377 -5.11171,0.77524 -0.65229,-0.0325 -1.57314,-0.78247 -1.5747,-1.16285 -0.003,-0.56659 1.16341,-1.36104 1.96232,-1.67161 2.46701,-0.95901 7.31577,0.44044 7.92194,-0.29071 0.47572,-0.57381 -0.4934,-1.48508 -1.06595,-1.96231 -0.87254,-0.72728 -1.97491,-0.55593 -3.2463,-1.09018 -0.75982,-0.31928 -0.63001,-1.6461 -1.35666,-2.03499 -0.80615,-0.43144 -1.86541,-0.18038 -2.76178,0 -2.78155,0.55975 -3.61522,3.06061 -4.69986,2.25303 -0.93447,-0.69577 0.90118,-6.05704 2.95558,-7.65546 1.50949,-1.17445 4.07207,1.72901 6.20189,0.9206 1.37417,-0.52159 0.89843,-2.31359 0.50874,-3.73082 -0.22873,-0.83186 -1.25709,-0.99642 -0.87214,-1.76851 0.77895,-1.56232 4.80125,1.28087 5.13594,-1.38089 0.26238,-2.0867 -5.05884,-1.17388 -4.89368,-3.27052 0.11241,-1.42682 2.80844,-1.08104 3.1494,-2.47107 0.27082,-1.10409 -0.62142,-3.68226 -1.16285,-4.04576 -0.93486,-0.62763 -2.81819,1.4332 -3.44011,0.79946 -0.60062,-0.61203 2.23482,-2.21822 2.08344,-3.63391 -0.11072,-1.03548 -0.6847,-1.68889 -1.69582,-1.93809 -1.63032,-0.40181 -1.53305,1.17428 -4.9179,1.0175 -5.0437,-0.23362 -7.02298,-4.7515 -8.04307,-4.79677 -1.37674,-0.0612 -2.00168,2.04201 -3.31898,2.44683 -1.65553,0.50877 -3.74314,0.87886 -5.06326,-0.24226 -1.62547,-1.38046 -2.28679,-4.27209 -1.62315,-6.29879 0.49153,-1.50106 3.20941,-3.14942 5.20862,-3.2463 1.59053,-0.0771 3.45378,1.32927 4.21534,2.25303 0.42495,0.51546 -0.0352,2.47444 0.96905,2.56797 1.48747,0.13853 3.50758,-3.01581 5.54777,-2.88291 1.57258,0.10244 1.00762,2.77453 3.8035,2.78601 1.3554,0.005 5.89515,-1.29284 6.92867,-1.88964 1.58084,-0.91285 3.29974,-2.82991 4.21534,-4.40915 1.81568,-3.13171 1.20712,-8.4267 2.64065,-9.59354 1.44712,-1.1779 3.7587,0.45787 5.25707,-0.65411 1.17856,-0.87463 0.33784,-2.85 1.45356,-3.8035 0.96402,-0.82384 2.54992,-1.61231 3.68237,-1.04172 0.41102,0.2071 0.98739,2.50535 1.84119,2.27726 1.95547,-0.5224 -1.37513,-2.22705 -0.58143,-3.2463 0.43112,-0.55363 2.81159,-1.61945 4.19112,-1.25976 0.60571,0.15793 0.67642,2.26514 1.6716,2.93136 0.41328,0.27666 2.41346,0.64676 2.88291,0.46029 1.45703,-0.57876 1.18354,-3.07206 2.66487,-3.58546 0.0846,-0.0293 0.1864,-0.0609 0.29071,-0.0726 z M 54.716016,148.26514 c 3.478847,0.18577 9.061586,3.95168 10.247645,5.32975 0.385387,0.44777 0.816898,2.86528 -0.07268,3.58546 -0.989324,0.80094 -1.832728,4.38975 -1.720054,5.59623 0.105781,1.13269 1.948566,4.57893 2.398385,4.86945 1.826934,1.17998 5.742744,0.63125 8.188425,2.01077 1.403056,0.79141 3.052411,1.84656 3.415881,3.41588 0.20361,0.87911 -1.627524,2.14943 -0.944818,5.32975 0.379516,1.76793 2.602172,3.05865 4.409152,3.12516 2.419387,0.0891 3.920868,-3.0153 6.226111,-3.75504 1.141389,-0.36627 2.451391,-1.11835 3.294751,-0.26649 0.748962,0.75651 1.355697,2.72491 2.034993,4.02153 0.490505,0.93626 0.659226,2.38533 1.671601,2.6891 2.320953,0.69642 4.578901,-1.68825 6.613732,-3.00404 1.16679,-0.75449 1.81334,-2.30377 3.12517,-2.76177 1.50015,-0.52376 3.36086,-0.51133 4.77254,0.21803 1.93808,1.00134 2.08151,3.76163 4.09421,4.60296 1.80364,0.75394 4.15117,0.55693 5.86272,-0.38761 1.06982,-0.59039 1.69458,-1.34606 1.69583,-2.56797 0.002,-2.3001 -1.66487,-2.2457 -2.42261,-2.5922 -0.54083,-0.2473 -0.21047,-4.76515 -0.26649,-7.51009 -0.95232,3.41717 -1.38059,5.46935 -2.34993,6.27456 -0.98453,0.81783 -2.59465,-0.0457 -3.36743,-1.06595 -0.51658,-0.68199 -1.15537,-2.35278 -0.84792,-3.68236 0.65886,-2.84924 1.34296,-3.96287 5.03903,-4.94213 2.27498,-0.60275 4.87082,-0.65788 7.07403,0.16958 1.77489,0.6666 3.96604,2.97331 4.3607,3.63392 0.94829,1.58732 0.37359,3.76618 -0.12113,5.54778 -0.32613,1.17446 -4.49053,9.54963 -7.00135,11.77389 -1.17019,1.03663 -3.68392,-0.83365 -8.45491,-0.67833 -3.50256,0.11403 -6.50782,2.07369 -9.95693,1.45356 -1.915677,-0.34442 -4.443707,-2.50827 -5.160163,-2.73755 -0.924972,-0.296 -2.256188,-0.67228 -2.907133,0.0485 -0.528343,0.58499 -0.438616,3.81065 -1.74428,4.99058 -1.851524,1.67323 -4.640349,1.8333 -7.122477,1.5747 -2.650216,-0.27611 -5.954719,-0.96549 -7.001346,-3.41588 -0.463886,-1.08607 1.186486,-2.53594 0.726784,-3.19785 -0.388387,-0.55923 -1.972103,-0.56385 -2.737551,0.12113 -0.482001,0.43134 -1.181867,2.55092 -2.083445,2.18035 -1.178951,-0.48456 -2.458482,-0.48894 -3.173621,-1.40511 -1.922911,-2.46347 0.223391,-6.67414 -1.574697,-9.23015 -3.287203,-4.6728 -8.12939,-9.89859 -9.472409,-10.65949 -3.99573,-2.26381 -6.061056,-3.82327 -7.728129,-6.83176 -1.266207,-2.28506 -1.888445,-5.1866 -1.283984,-7.72813 0.380233,-1.59874 1.354675,-3.43418 2.907133,-3.97308 0.391895,-0.13604 0.859684,-0.19612 1.356662,-0.16959 z m 44.309556,5.88695 c 2.198818,0 3.916098,3.41266 3.125168,4.31225 -0.50546,0.57489 -3.376697,1.72224 -4.79677,0.92059 -1.420071,-0.80166 -2.702661,-1.96277 -1.913862,-3.63392 0.601178,-1.27366 1.31793,-1.59892 3.585464,-1.59892 z m -14.681023,41.03903 c 2.348941,0.0419 2.038909,3.31072 3.246299,2.95559 1.069607,-0.31462 3.844285,-1.82753 5.66891,0.29071 1.124284,1.3052 0.969867,4.28594 0.702557,6.39569 -4.00593,-1.77722 -7.836316,-3.87001 -11.483176,-6.22611 -0.0025,-1.32467 0.240725,-3.4449 1.86541,-3.41588 z"
	/>
</svg>