<?xml version="1.0" encoding="UTF-8" standalone="no"?>
<!-- Created with Inkscape (http://www.inkscape.org/) by Toomai Glittershine for SmashWiki -->
<svg id="svg2" xmlns:rdf="http://www.w3.org/1999/02/22-rdf-syntax-ns#" xmlns="http://www.w3.org/2000/svg" version="1.1" xmlns:cc="http://creativecommons.org/ns#" xmlns:dc="http://purl.org/dc/elements/1.1/"
		height="256" width="256"
		viewBox="0 0 256 256">
	<metadata id="metadata7">
		<rdf:RDF>
			<cc:Work rdf:about="">
				<dc:format>image/svg+xml</dc:format>
				<dc:type rdf:resource="http://purl.org/dc/dcmitype/StillImage"/>
				<dc:title/>
			</cc:Work>
		</rdf:RDF>
	</metadata>
	<path id="mainsymbolpath" style="opacity:0.5;fill:#000000;fill-opacity:1;stroke:none"
		d="m 210.35584,45.644161 c -5.02604,-5e-6 -11.99452,-1.263729 -17.63347,4.375223 -5.63895,5.638953 -5.19282,12.308078 -5.19282,12.308078 l -9.8111,9.811106 c -3.37848,-1.295991 -7.59342,-1.105514 -11.86614,0.419845 l -11.07064,-16.99266 -22.56113,-0.817592 -10.98225,15.62264 5.01604,21.854019 9.34707,-18.009126 6.65122,0.375651 6.38606,12.484854 -4.44152,12.750019 -82.996654,68.633552 -15.556349,41.89607 41.896077,-15.55635 68.633556,-82.99665 12.75001,-4.44152 12.48486,6.38606 0.37565,6.65122 -18.00913,9.34707 21.85402,5.01604 15.62264,-10.98225 -0.81759,-22.56113 -16.99266,-11.070636 c 1.52536,-4.272724 1.71584,-8.487656 0.41985,-11.866136 l 9.8111,-9.811106 c 0,0 6.66913,0.446137 12.30808,-5.192816 5.63895,-5.638952 4.37522,-12.607443 4.37522,-17.633475 z M 172.7908,83.209209 c 2.30924,2.309248 0.90763,7.445063 -3.11569,11.468388 -4.02333,4.023325 -9.15914,5.424933 -11.46839,3.115689 -2.30925,-2.309248 -0.90764,-7.445063 3.11569,-11.468388 4.02332,-4.023324 9.15914,-5.424937 11.46839,-3.115689 z"
	/>
</svg>