<?xml version="1.0" encoding="UTF-8" standalone="no"?>
<!-- Created with Inkscape (http://www.inkscape.org/) by Toomai Glittershine for SmashWiki -->
<svg id="svg2" xmlns:rdf="http://www.w3.org/1999/02/22-rdf-syntax-ns#" xmlns="http://www.w3.org/2000/svg" version="1.1" xmlns:cc="http://creativecommons.org/ns#" xmlns:dc="http://purl.org/dc/elements/1.1/"
		height="256" width="256"
		viewBox="0 0 256 256">
	<metadata id="metadata7">
		<rdf:RDF>
			<cc:Work rdf:about="">
				<dc:format>image/svg+xml</dc:format>
				<dc:type rdf:resource="http://purl.org/dc/dcmitype/StillImage"/>
				<dc:title/>
			</cc:Work>
		</rdf:RDF>
	</metadata>
	<path id="mainsymbolpath" style="opacity:0.5;fill:#000000;fill-opacity:1;stroke:none"
		d="m 107.49413,170.62545 c 0,7.43125 2.63164,13.45547 5.87792,13.45547 3.24628,0 5.87792,-6.02422 5.87792,-13.45547 0,-7.43125 -2.63164,-13.45546 -5.87792,-13.45546 -3.24628,0 -5.87792,6.02421 -5.87792,13.45546 z m 41.01174,0 c 0,7.43125 -2.63163,13.45547 -5.87792,13.45547 -3.24628,0 -5.87791,-6.02422 -5.87791,-13.45547 0,-7.43125 2.63163,-13.45546 5.87791,-13.45546 3.24629,0 5.87792,6.02421 5.87792,13.45546 z M 128,37.546875 c -65.677164,0 -96.687502,58.367412 -96.687502,96.687495 0,22.10509 5.565867,37.79913 30.687499,42.53125 -0.745258,3.00942 -1.156241,6.21908 -1.156241,9.625 0,10.05522 5.597694,20.18171 16.59375,25.1875 10.996045,5.00579 26.601374,6.875 50.562494,6.875 23.96112,0 39.56645,-1.86921 50.5625,-6.875 10.99605,-5.00579 16.59375,-15.13228 16.59375,-25.1875 0,-3.40592 -0.41098,-6.61558 -1.15625,-9.625 25.12164,-4.73213 30.6875,-20.42616 30.6875,-42.53125 0,-38.320083 -31.01033,-96.687495 -96.6875,-96.687495 z m 0,113.749995 c 30.17844,0 59.65625,6.33371 59.65625,35.09375 0,16.2229 -12.62023,24.5625 -59.65625,24.5625 -47.036019,0 -59.656251,-8.3396 -59.656251,-24.5625 0,-28.76004 29.477809,-35.09375 59.656251,-35.09375 z"
	/>
</svg>