<?xml version="1.0" encoding="UTF-8" standalone="no"?>
<!-- Created with Inkscape (http://www.inkscape.org/) by Toomai Glittershine for SmashWiki -->
<svg id="svg2" xmlns:rdf="http://www.w3.org/1999/02/22-rdf-syntax-ns#" xmlns="http://www.w3.org/2000/svg" version="1.1" xmlns:cc="http://creativecommons.org/ns#" xmlns:dc="http://purl.org/dc/elements/1.1/"
		height="256" width="256"
		viewBox="0 0 256 256">
	<metadata id="metadata7">
		<rdf:RDF>
			<cc:Work rdf:about="">
				<dc:format>image/svg+xml</dc:format>
				<dc:type rdf:resource="http://purl.org/dc/dcmitype/StillImage"/>
				<dc:title/>
			</cc:Work>
		</rdf:RDF>
	</metadata>
	<path id="mainsymbolpath" style="opacity:0.5;fill:#000000;fill-opacity:1;stroke:none"
		d="m 213.92498,88.59725 c 4.86775,9.154894 -28.80809,50.54688 -28.80809,50.54688 0,0 20.96212,49.07084 13.75952,56.52935 -7.20261,7.45852 -56.97514,-11.77827 -56.97514,-11.77827 0,0 -40.19148,35.09987 -49.510673,30.5546 -9.319205,-4.54527 -6.404478,-57.82626 -6.404478,-57.82626 0,0 -45.801825,-27.37793 -44.358801,-37.64557 1.443025,-10.26765 53.01695,-23.96032 53.01695,-23.96032 0,0 11.884402,-52.020358 22.095432,-53.820839 10.21104,-1.800487 39.17075,43.017967 39.17075,43.017967 0,0 53.14679,-4.772429 58.01453,4.382462 z"
	/>
</svg>