<?xml version="1.0" encoding="UTF-8" standalone="no"?>
<!-- Created with Inkscape (http://www.inkscape.org/) by Toomai Glittershine for SmashWiki -->
<svg id="svg2" xmlns:rdf="http://www.w3.org/1999/02/22-rdf-syntax-ns#" xmlns="http://www.w3.org/2000/svg" version="1.1" xmlns:cc="http://creativecommons.org/ns#" xmlns:dc="http://purl.org/dc/elements/1.1/"
		height="256" width="256"
		viewBox="0 0 256 256">
	<metadata id="metadata7">
		<rdf:RDF>
			<cc:Work rdf:about="">
				<dc:format>image/svg+xml</dc:format>
				<dc:type rdf:resource="http://purl.org/dc/dcmitype/StillImage"/>
				<dc:title/>
			</cc:Work>
		</rdf:RDF>
	</metadata>
	<path id="mainsymbolpath" style="opacity:0.5;fill:#000000;fill-opacity:1;stroke:none"
		d="M 161.03125,32.15625 163.75,51.09375 C 141.57047,54.080419 125.50731,63.156588 119.15625,85.125 L 135.875,75.84375 146.3125,92.5 164.21875,77.90625 178.125,98.6875 l 14.9375,-11.59375 10.625,14.25 c -1.58002,-13.953249 -3.13681,-27.526901 -8.0625,-35.25 -4.29786,-6.738697 -12.45292,-12.055453 -20.46875,-14.28125 l 10.1875,-15.21875 -24.3125,-4.4375 z m -27.59375,53.03125 -7.34375,4.09375 c -3.2359,6.677194 -7.37275,15.04581 -15.65625,19.96875 -7.48917,4.45086 -31.697247,6.9424 -49.6875,28.875 -10.463531,12.75649 -11.351104,35.32225 -0.78125,51.96875 9.749682,15.35481 31.806007,26.45397 52.40625,27.15625 20.60024,0.70228 50.80682,-5.19987 69.9375,-33.53125 13.76384,-20.38343 12.98638,-60.45197 12.3125,-82.5625 l 0.21875,0.0312 L 191.71875,97 176.5,108.8125 l -13.84375,-20.625 -18.0625,14.75 -11.15625,-17.75 z m -6.6875,24.90625 c 7.29492,0 13.53125,4.38656 13.53125,10 0,1.61474 -0.66079,3.11077 -1.6875,4.5 -0.85826,-3.38519 -4.44836,-6.53125 -8.875,-6.53125 -5.09102,0 -10.84375,3.87934 -10.84375,8.9375 0,2.1455 0.96273,4.11898 2.78125,5.46875 -0.14204,0.004 -0.29857,0.0312 -0.4375,0.0312 -7.57426,0 -10.15625,-3.85103 -10.15625,-8.1875 0,-7.08993 7.0757,-14.21875 15.6875,-14.21875 z m 28.90625,2.0625 c 10.90478,0 18.96875,7.42395 18.96875,14.71875 0,5.8183 -2.34585,9.40625 -8.78125,9.40625 -1.65394,0 -3.53581,-0.43715 -5.46875,-1.15625 2.01911,-1.59632 3.3125,-3.67747 3.3125,-5.8125 0,-4.40781 -4.6076,-9.28125 -10.9375,-9.28125 -2.53977,0 -4.78507,0.73252 -6.46875,1.9375 0,-6.73613 3.53818,-9.8125 9.375,-9.8125 z"
	/>
</svg>