<?xml version="1.0" encoding="UTF-8" standalone="no"?>
<!-- Created with Inkscape (http://www.inkscape.org/) by Toomai Glittershine for SmashWiki -->
<svg id="svg2" xmlns:rdf="http://www.w3.org/1999/02/22-rdf-syntax-ns#" xmlns="http://www.w3.org/2000/svg" version="1.1" xmlns:cc="http://creativecommons.org/ns#" xmlns:dc="http://purl.org/dc/elements/1.1/"
		height="256" width="256"
		viewBox="0 0 256 256">
	<metadata id="metadata7">
		<rdf:RDF>
			<cc:Work rdf:about="">
				<dc:format>image/svg+xml</dc:format>
				<dc:type rdf:resource="http://purl.org/dc/dcmitype/StillImage"/>
				<dc:title/>
			</cc:Work>
		</rdf:RDF>
	</metadata>
	<path id="mainsymbolpath" style="opacity:0.5;fill:#000000;fill-opacity:1;stroke:none"
		d="m 30.299281,66.702 c 1.311428,11.48727 3.071932,22.382417 5.516395,32.446647 2.896219,0.0084 9.847559,0.158937 10.287962,1.466383 0.542016,1.60911 -5.1465,3.05328 -8.914681,3.84053 1.925249,6.96423 4.211127,13.48169 6.959503,19.41212 2.670525,-1.20131 8.99571,-3.89717 9.636235,-2.79311 0.713361,1.2296 -4.761738,4.89133 -7.681057,6.72674 3.521357,6.7438 7.704865,12.64483 12.708657,17.52678 1.657084,-1.48048 6.966728,-6.07638 8.332784,-5.60951 0.929081,0.31754 -2.701626,5.72748 -4.818118,8.75175 5.222782,4.28699 11.231521,7.58459 18.178501,9.70607 2.561547,-1.89294 6.76511,-7.00396 7.84399,-7.07588 0.966221,-0.0644 -0.979645,5.81023 -1.931903,8.54226 7.519636,1.48356 16.023511,1.75643 25.603521,0.51207 -1.01692,8.12104 -4.91953,16.15182 -9.05434,20.92506 -1.76039,2.03222 -5.956021,4.14543 -6.005185,5.37674 -0.06697,1.67742 3.446075,1.32157 4.864675,1.30345 1.81992,-0.0232 4.32992,-0.21238 6.16812,-1.32672 2.79646,-1.69527 7.32369,-6.31463 10.47417,-9.869 0.11863,1.54232 -0.51236,5.31676 -1.2569,7.86727 -0.39047,1.33756 -1.76727,3.47683 -1.67587,3.84052 0.26112,1.03903 1.97795,1.00676 3.04915,1.02414 1.45939,0.0237 3.19031,-0.19308 4.18967,-1.25689 2.50431,-2.66585 3.29559,-11.54487 5.23707,-11.54487 1.94148,0 2.7095,8.87902 5.21381,11.54487 0.99936,1.06381 2.73027,1.28058 4.18967,1.25689 1.0712,-0.0173 2.78802,0.0149 3.04915,-1.02414 0.0914,-0.36369 -1.26213,-2.50296 -1.65259,-3.84052 -0.74455,-2.55051 -1.39881,-6.32495 -1.28018,-7.86727 3.15047,3.55437 7.6777,8.17373 10.47417,9.869 1.8382,1.11434 4.34819,1.30349 6.16812,1.32672 1.4186,0.0181 4.93163,0.37397 4.86467,-1.30345 -0.0492,-1.23131 -4.24479,-3.34452 -6.00519,-5.37674 -4.1348,-4.77324 -8.01414,-12.80402 -9.03106,-20.92506 9.58001,1.24436 18.06061,0.97149 25.58024,-0.51207 -0.95225,-2.73203 -2.89812,-8.60669 -1.93189,-8.54226 1.07887,0.072 5.28244,5.18294 7.84398,7.07588 6.94698,-2.12148 12.95572,-5.41908 18.17851,-9.70607 -2.1165,-3.02427 -5.7472,-8.43421 -4.81812,-8.75175 1.36605,-0.46687 6.6757,4.12903 8.33278,5.60951 5.00379,-4.88195 9.1873,-10.78298 12.70866,-17.52678 -2.91932,-1.83541 -8.39442,-5.49714 -7.68106,-6.72674 0.64053,-1.10406 6.96571,1.5918 9.63623,2.79311 2.74838,-5.93043 5.03426,-12.44789 6.95951,-19.41212 -3.76819,-0.78725 -9.4567,-2.23142 -8.91468,-3.84053 0.4404,-1.307446 7.39174,-1.457922 10.28796,-1.466383 2.44446,-10.06423 4.20497,-20.959377 5.5164,-32.446647 -7.38498,0.06535 -48.53995,14.667857 -55.14069,14.896595 -1.05262,23.209675 -2.57206,35.875925 -31.5156,36.566475 0,0 2.41621,-1.38166 3.65432,-3.95691 1.23809,-2.57525 2.47515,-7.01887 3.11897,-10.68364 -0.49523,0.64381 -1.10138,1.12813 -2.14139,1.72241 0.99048,-1.2381 2.87186,-3.07385 2.72329,-6.540526 -0.39619,0.742861 -1.37228,1.791736 -2.16466,2.187936 3.26859,-5.546695 4.50167,-9.506846 3.95691,-17.480222 -2.77336,3.516209 -7.62355,7.682022 -11.68452,9.217268 -4.06097,1.535248 -9.46581,1.575815 -13.08107,2.467249 -3.61526,0.891433 -6.43007,2.819823 -8.65864,4.701738 -2.2286,1.881907 -1.8388,3.266037 -1.8388,4.306047 -4.06098,1.04 -8.32433,2.92678 -10.40435,5.35345 -1.47322,1.71877 -1.46226,4.76161 -1.32672,6.40089 C 87.355897,111.18581 86.254033,99.548356 85.43996,81.598595 78.839232,81.369857 37.684255,66.767354 30.299281,66.702 z m 80.371799,48.46048 c 1.85369,0.01 3.7682,0.1233 4.58535,0.39569 0.9911,0.33037 1.69914,2.6069 1.69914,2.6069 -5.62948,-0.13431 -10.21262,-0.73914 -13.96555,-1.76897 1.21002,-0.42635 2.64315,-0.91257 3.39827,-1.04742 0.63286,-0.113 2.42908,-0.19589 4.28279,-0.1862 z"
	/>
</svg>