<?xml version="1.0" encoding="UTF-8" standalone="no"?>
<!-- Created with Inkscape (http://www.inkscape.org/) by Toomai Glittershine for SmashWiki -->
<svg id="svg2" xmlns:rdf="http://www.w3.org/1999/02/22-rdf-syntax-ns#" xmlns="http://www.w3.org/2000/svg" version="1.1" xmlns:cc="http://creativecommons.org/ns#" xmlns:dc="http://purl.org/dc/elements/1.1/" xmlns:xlink="http://www.w3.org/1999/xlink"
		height="256" width="256"
		viewBox="0 0 256 256">
	<defs id="defs4">
		<clipPath id="clipPath4292" clipPathUnits="userSpaceOnUse">
			<path id="path4294"
				d="m 71.935547,88.044901 c -0.0054,7.328946 1.867086,14.755389 5.794922,21.558599 13.007567,22.52977 19.935547,48.38525 19.935547,74.40039 0,23.8587 19.340514,43.19922 43.199214,43.19921 23.8587,0 43.19922,-19.34051 43.19922,-43.19921 l 0,-7.99998 c 0,-40.97836 -11.02058,-82.111321 -31.50976,-117.599613 -7.82864,-13.559595 -21.89895,-21.27083 -36.48633,-21.597656 -7.64101,-0.171195 -15.42275,1.684442 -22.525391,5.785156 -13.862208,8.003349 -21.59926,22.529247 -21.601563,37.458008 z"
			/>
		</clipPath>
		<filter id="filter4304" x="0" y="0" width="1" height="1" style="color-interpolation-filters:sRGB">
			<feGaussianBlur id="feGaussianBlur4306" stdDeviation="1.28"/>
		</filter>
		<clipPath id="clipPath4397" clipPathUnits="userSpaceOnUse">
			<path id="path4399"
				d="M 152.55434,58.403606 C 140.62499,37.741366 114.20429,30.661959 93.542047,42.591309 c -20.66224,11.92935 -27.74165,38.350057 -15.8123,59.012301 13.00757,22.52977 19.93542,48.38486 19.93542,74.4 0,23.8587 19.341303,43.2 43.200003,43.2 23.8587,0 43.2,-19.3413 43.2,-43.2 0,-40.97836 -11.02165,-82.111712 -31.51083,-117.600004 z"
			/>
		</clipPath>
		<filter id="filter4391" x="-0.05" y="-0.05" width="1.1" height="1.1" style="color-interpolation-filters:sRGB">
			<feGaussianBlur id="feGaussianBlur4393" stdDeviation="1.4"/>
		</filter>
	</defs>
	<metadata id="metadata7">
		<rdf:RDF>
			<cc:Work rdf:about="">
				<dc:format>image/svg+xml</dc:format>
				<dc:type rdf:resource="http://purl.org/dc/dcmitype/StillImage"/>
				<dc:title/>
			</cc:Work>
		</rdf:RDF>
	</metadata>
	<g id="g4455">
		<path id="path4217" style="opacity:1;fill:#5f5f5f;fill-opacity:1;stroke:none;"
			d="m 71.934832,80.043998 0,24 c 0,7.32896 1.867079,14.75641 5.794915,21.55962 13.007567,22.52977 19.93542,48.38486 19.93542,74.4 0,23.8587 19.341303,43.2 43.2,43.2 23.8587,0 43.2,-19.34091 43.2,-43.19961 l 0,-24"
		/>
		<path id="path4214" style="opacity:1;fill:#bfbfbf;fill-opacity:1;stroke:none;"
			d="M 152.55434,58.403604 C 140.62499,37.741363 114.20429,30.661956 93.542047,42.591306 c -20.66224,11.929351 -27.74165,38.350058 -15.8123,59.012304 13.00757,22.52977 19.93542,48.38486 19.93542,74.4 0,23.8587 19.341303,43.2 43.200003,43.2 23.8587,0 43.2,-19.3413 43.2,-43.2 0,-40.97836 -11.02165,-82.111714 -31.51083,-117.600006 z"
		/>
		<path id="path4229" style="opacity:1;fill:#5f5f5f;fill-opacity:1;stroke:none;filter:url(#filter4304);" clip-path="url(#clipPath4292)"
			d="M 152.55434,54.403146 C 140.62499,33.740906 114.20429,26.661499 93.542047,38.590849 c -20.66224,11.92935 -27.74165,38.350057 -15.8123,59.012301 13.00757,22.52977 19.93542,48.38486 19.93542,74.4 0,23.8587 19.341303,43.2 43.200003,43.2 23.8587,0 43.2,-19.3413 43.2,-43.2 0,-40.97836 -11.02165,-82.111712 -31.51083,-117.600004 z M 256,0 256,256 0,256 0,0 Z"
		/>
		<path id="path4363" style="opacity:1;fill:#cfcfcf;fill-opacity:1;stroke:none;filter:url(#filter4391);" clip-path="url(#clipPath4397)"
			d="M 148.55434,51.867384 C 137.90044,33.414283 114.30455,27.091783 95.851448,37.745686 77.398347,48.399589 71.075844,71.995481 81.729747,90.448585 93.34659,110.56954 101.66517,146.39695 101.66517,170.00328 c 0,21.64956 17.55044,39.2 39.2,39.2 21.64956,0 39.2,-17.55044 39.2,-39.2 0,-37.18407 -13.21229,-86.441896 -31.51083,-118.135896 z"
		/>
		<path id="path4320" style="fill:#5f5f5f;fill-opacity:1;stroke:none;"
			d="m 114.09272,98.267105 13.33204,28.220705 -13.33204,28.22265 12.03125,0 7.31641,-15.48828 7.31836,15.48828 12.0293,0 -13.33204,-28.22265 13.33204,-28.220705 -12.0293,0 -7.31836,15.488275 -7.31641,-15.488275 -12.03125,0 z"
		/>
		<path id="path4325" style="fill:#8f8f8f;fill-opacity:1;stroke:none;"
			d="m 115.98242,102.26758 11.44141,24.2207 0,4 -11.44336,24.22266 10.14258,0 7.3164,-15.48828 7.31836,15.48828 10.14063,0 -11.44336,-24.22266 0,-4 11.4414,-24.2207 -10.13867,0 -7.31836,15.48828 -7.3164,-15.48828 z"
		/>
	</g>
</svg>