<?xml version="1.0" encoding="UTF-8" standalone="no"?>
<!-- Created with Inkscape (http://www.inkscape.org/) by Toomai Glittershine for SmashWiki -->
<svg id="svg2" xmlns:rdf="http://www.w3.org/1999/02/22-rdf-syntax-ns#" xmlns="http://www.w3.org/2000/svg" version="1.1" xmlns:cc="http://creativecommons.org/ns#" xmlns:dc="http://purl.org/dc/elements/1.1/"
		height="256" width="256"
		viewBox="0 0 256 256">
	<metadata id="metadata7">
		<rdf:RDF>
			<cc:Work rdf:about="">
				<dc:format>image/svg+xml</dc:format>
				<dc:type rdf:resource="http://purl.org/dc/dcmitype/StillImage"/>
				<dc:title/>
			</cc:Work>
		</rdf:RDF>
	</metadata>
	<path id="mainsymbolpath" style="opacity:0.5;fill:#000000;fill-opacity:1;stroke:none"
		d="m 201.71655,45.32812 c -7.21257,6.182203 -12.7931,8.119708 -25.26053,8.531853 -12.46746,0.412148 -27.08641,-3.811675 -47.48357,-4.221257 C 103.31631,49.123533 83.596939,56.627451 86.000498,81.063632 88.166641,103.0861 100.79193,119.76875 103.28755,122.87419 92.811849,128.42647 86.384648,135.30334 82.069591,134.8009 71.304273,133.54739 71.438276,111.28247 71.438276,111.28247 L 31.59318,142.21602 c -8.750554,6.79564 0.894437,10.25383 7.214107,10.38563 10.029926,0.20918 23.370562,0.28991 30.084834,0.42436 7.013135,0.14045 12.549762,2.11538 17.354058,8.44252 6.741247,8.87807 3.778446,20.44657 6.745079,29.66047 1.791873,5.56528 4.968768,8.36729 15.946972,8.1075 l 2.7695,-5.31566 c -10.95222,-0.33243 -22.053132,-6.08863 9.38057,-28.4544 2.17757,14.46894 6.98471,20.98799 17.42107,24.00979 -12.34402,7.33554 -19.49617,16.13131 -20.6596,21.19563 l 36.60657,-19.29717 c 3.87929,-2.04611 -15.03286,-8.78419 -13.46782,-15.92465 1.14404,-5.2197 7.68525,-4.70968 12.30641,-7.39278 4.67836,-2.71632 7.11011,-6.93911 9.2689,-10.58665 3.95012,-6.67418 1.81185,-18.57035 4.9583,-29.92848 0.61661,-2.22584 3.69854,-3.82748 7.50446,-2.6355 8.74098,2.73759 20.82046,10.25677 38.77303,5.74001 15.9871,-4.02225 23.33617,-17.52785 26.10926,-31.670582 -4.4924,2.884002 -8.74494,4.847892 -13.55716,5.941012 -16.06006,3.64815 -36.63844,-2.47746 -53.08957,3.86391 -6.0879,2.34669 -8.48094,5.87096 -10.38563,8.53186 -10.39772,1.99071 -20.06511,-2.75823 -38.46035,-0.93806 -5.86582,0.58041 -10.99611,2.01986 -15.50028,3.8639 -1.58001,-4.00358 -4.03955,-12.27193 0.78172,-15.87996 9.8131,-7.343703 31.63526,-3.50868 48.53329,-12.060735 23.21244,-11.747758 34.41842,-26.877707 43.48565,-46.969865 z"
	/>
</svg>