<?xml version="1.0" encoding="UTF-8" standalone="no"?>
<!-- Created with Inkscape (http://www.inkscape.org/) by Toomai Glittershine for SmashWiki -->
<svg id="svg2" xmlns:rdf="http://www.w3.org/1999/02/22-rdf-syntax-ns#" xmlns="http://www.w3.org/2000/svg" version="1.1" xmlns:cc="http://creativecommons.org/ns#" xmlns:dc="http://purl.org/dc/elements/1.1/"
		height="256" width="256"
		viewBox="0 0 256 256">
	<metadata id="metadata7">
		<rdf:RDF>
			<cc:Work rdf:about="">
				<dc:format>image/svg+xml</dc:format>
				<dc:type rdf:resource="http://purl.org/dc/dcmitype/StillImage"/>
				<dc:title/>
			</cc:Work>
		</rdf:RDF>
	</metadata>
	<path id="mainsymbolpath" style="opacity:0.5;fill:#000000;fill-opacity:1;stroke:none"
		d="m 196.78494,58.971425 -20.72166,24.973842 c -3.46757,3.727111 -4.64179,2.844231 -4.78032,-1.933994 l -0.11697,-19.478405 c 0,-3.589361 -3.42633,-5.700906 -7.2333,-5.700906 l -20.49653,0.154827 c -2.67579,0 -7.26202,2.62119 -7.26202,7.421143 l 0.74882,120.341278 c 0,4.42899 4.48525,5.07915 7.01183,5.07915 l 21.82683,-0.15015 c 4.19781,0 6.16486,-3.88726 6.16486,-6.02958 l -0.12004,-20.43888 c 0.11212,-4.28785 1.54772,-3.91467 3.51497,-1.8742 l 17.44296,22.69517 c 2.71067,3.75215 4.81056,4.41932 9.61444,3.50551 l 24.24339,-4.149 c 6.09787,-0.98156 7.74097,-3.26429 3.87066,-8.36394 l -39.13962,-48.44492 c -2.05993,-2.74296 -2.37979,-5.52982 0.47059,-9.03976 l 35.91889,-47.033462 c 2.08739,-2.954087 3.01136,-5.26874 -0.0755,-6.488248 l -19.59975,-7.516215 c -4.32435,-1.600828 -8.1086,-1.134247 -11.2825,2.47074 z M 71.736092,68.208496 C 57.907291,67.663911 45.609203,72.669183 32.797484,78.060403 22.223267,82.435941 14.904122,90.630687 22.642342,102.17725 l 40.625,91.21875 c 6.907678,15.44943 3.652883,14.77722 23.1875,9.875 12.127028,-4.38353 22.828228,-11.08289 31.031248,-20.15625 34.49294,-38.1526 14.33434,-106.36762 -39.749998,-114.343754 -2.024233,-0.298525 -4.024457,-0.484702 -6,-0.5625 z m 4.005949,37.001154 c 19.485669,4.93478 28.577499,38.61125 17.56365,50.7661 -1.280189,1.41281 -1.912441,2.09309 -4.600849,3.60775 l -23.84375,-53.59375 c 4.759916,-2.07417 8.697789,-1.33299 10.880949,-0.7801 z"
	/>
</svg>