<?xml version="1.0" encoding="UTF-8" standalone="no"?>
<!-- Created with Inkscape (http://www.inkscape.org/) by Toomai Glittershine for SmashWiki -->
<svg id="svg2" xmlns:rdf="http://www.w3.org/1999/02/22-rdf-syntax-ns#" xmlns="http://www.w3.org/2000/svg" version="1.1" xmlns:cc="http://creativecommons.org/ns#" xmlns:dc="http://purl.org/dc/elements/1.1/"
		height="256" width="256"
		viewBox="0 0 256 256">
	<metadata id="metadata7">
		<rdf:RDF>
			<cc:Work rdf:about="">
				<dc:format>image/svg+xml</dc:format>
				<dc:type rdf:resource="http://purl.org/dc/dcmitype/StillImage"/>
				<dc:title/>
			</cc:Work>
		</rdf:RDF>
	</metadata>
	<path id="mainsymbolpath" style="opacity:0.5;fill:#000000;fill-opacity:1;stroke:none"
		d="m 38.06423,114.86806 -3.491224,-1.2707 c -0.162569,-2.12001 -1.512238,-4.04998 -3.640301,-4.82453 -2.90026,-1.05562 -6.110866,0.42193 -7.166469,3.32219 -1.055611,2.90026 0.445512,6.11945 3.345781,7.17506 2.137448,0.77796 4.435312,0.1635 5.921956,-1.37087 l 3.467634,1.26211 z m 35.258571,-5.49294 -21.206755,-7.71865 0.858584,-2.358935 c 0.642271,-1.76464 -0.260845,-3.70136 -2.025474,-4.34365 l -0.07077,-0.0257 c -1.764645,-0.64227 -3.701374,0.26084 -4.343652,2.02548 L 31.466637,138.35288 c -0.642276,1.76464 0.260832,3.70137 2.025477,4.34365 l 0.07077,0.0258 c 1.764637,0.64228 3.701367,-0.26083 4.343644,-2.02548 l 0.858587,-2.35893 21.206839,7.71864 c 10.127051,3.68593 21.322722,-1.55427 25.008623,-11.68131 3.685894,-10.12705 -1.530737,-21.31412 -11.657778,-25.00008 z m 32.889869,9.33591 c -5.79189,0 -16.543029,5.74903 -16.543029,14.91132 0,5.96257 8.190797,8.84119 14.133119,4.04162 0.18368,9.01715 2.4585,11.44701 6.25071,9.03716 16.54824,25.27368 53.24236,33.85179 72.79937,23.47152 l -6.67746,-22.11594 c -9.94996,6.54671 -10.24376,9.28819 -29.44609,9.28819 -19.91539,0 -31.70538,-8.95676 -31.70538,-17.42164 l 0,-14.05781 c 0,-2.7079 -3.01936,-7.15442 -8.81124,-7.15442 z m 62.73298,-67.45239 c -20.72139,0 -30.32916,11.248387 -34.36632,20.333619 -9.21936,-0.527735 -18.86376,-0.999636 -19.48011,-0.753097 -1.18615,0.47446 -3.913,2.833471 -2.13378,5.798847 1.32762,2.212699 12.86672,5.152242 18.6517,6.501738 -0.44033,3.265886 -0.85573,7.137694 -1.20495,11.170939 -4.65506,-3.014244 -9.92579,-5.382235 -13.30471,-3.665072 -7.23552,3.677066 -7.47646,14.694696 -3.0877,20.032376 3.13072,3.80764 10.79403,5.08093 14.96153,5.49761 -0.0709,1.5513 -0.12552,2.77706 -0.12552,3.16301 0,2.49091 1.18916,6.77787 6.52684,6.77787 5.33768,0 6.51485,-5.93057 10.19191,-9.48902 3.67707,-3.55845 11.39549,-9.74006 18.27516,-9.74006 5.81214,0 11.37176,6.41874 11.37176,14.48457 0,8.06582 -8.29277,11.02532 -12.32569,11.97424 -4.03291,0.94892 -11.05532,1.16199 -10.9199,4.14203 0.0983,2.16229 1.55408,4.49561 19.32949,1.43089 2.76061,-0.47597 6.17571,-1.14327 9.84046,-2.10867 4.09813,41.89043 22.63223,57.28826 39.01043,56.93413 l 0,-53.34437 c -5.53649,8.08503 -20.53683,9.50969 -29.99836,-6.55195 12.32964,-5.02116 24.45055,-14.56472 24.45055,-33.71364 0,-26.806992 -15.77179,-48.87599 -45.66279,-48.87599 z m -81.913667,147.39362 2e-6,3.71528 c -1.936558,0.87785 -3.28852,2.80621 -3.288524,5.07085 -4e-6,3.08639 2.486527,5.59803 5.572918,5.59802 3.086398,0 5.598027,-2.51162 5.598023,-5.59802 2e-6,-2.27462 -1.363318,-4.22375 -3.313623,-5.09595 l 0,-3.69018 z m -17.220815,-31.25353 -2.2e-5,22.56777 -2.510326,0 c -1.877884,0 -3.388925,1.51105 -3.388936,3.38893 l 3e-6,0.0753 c 5e-6,1.8779 1.511055,3.38895 3.388946,3.38895 l 44.056167,0 c 1.8779,-1e-5 3.38895,-1.51105 3.38894,-3.38895 l 0,-0.0753 c 0,-1.87789 -1.51105,-3.38894 -3.38894,-3.38893 l -2.51032,-1e-5 -3e-5,-22.56784 c -1e-5,-10.77698 -8.75333,-19.50521 -19.530293,-19.50517 -10.776956,4e-5 -19.505177,8.72828 -19.505189,19.50525 z"
	/>
</svg>